<svg id="visual" viewBox="0 0 960 300" width="960" height="300" xmlns="http://www.w3.org/2000/svg" xmlns:xlink="http://www.w3.org/1999/xlink" version="1.1"><rect x="0" y="0" width="960" height="300" fill="#006400"></rect><g transform="translate(493.8616677844203 145.98605528004182)"><path d="M83.5 -142.2C93.1 -139.2 75.1 -86.1 82.8 -54C90.4 -22 123.7 -11 138.9 8.7C154 28.5 151.1 57 143.6 89.5C136.2 122 124.4 158.4 99.7 148.8C75 139.3 37.5 83.7 12.3 62.5C-13 41.3 -26 54.4 -57.2 67.7C-88.4 81 -137.7 94.5 -160.5 83.3C-183.4 72 -179.7 36 -169.3 6C-158.9 -24 -141.8 -48 -119.1 -59.4C-96.3 -70.8 -67.9 -69.6 -47.1 -66.1C-26.3 -62.6 -13.2 -56.8 11.9 -77.4C37 -98.1 74 -145.2 83.5 -142.2" fill="#4aa64a"></path></g></svg>