<svg id="visual" viewBox="0 0 960 300" width="960" height="300" xmlns="http://www.w3.org/2000/svg" xmlns:xlink="http://www.w3.org/1999/xlink" version="1.1"><g stroke-width="1" stroke-linejoin="bevel"><path d="M466 179.3L501 102.6L455 172.4Z" fill="#ebd08b" stroke="#ebd08b"></path><path d="M466 179.3L502 191.4L501 102.6Z" fill="#ecdea6" stroke="#ecdea6"></path><path d="M501 102.6L448 83.7L455 172.4Z" fill="#f87c19" stroke="#f87c19"></path><path d="M448 83.7L416 144.6L455 172.4Z" fill="#f4902d" stroke="#f4902d"></path><path d="M502 191.4L550 125.6L501 102.6Z" fill="#ecc271" stroke="#ecc271"></path><path d="M550 94.7L527 79.7L501 102.6Z" fill="#f87c19" stroke="#f87c19"></path><path d="M501 102.6L466 41.9L448 83.7Z" fill="#ff4500" stroke="#ff4500"></path><path d="M550 125.6L550 94.7L501 102.6Z" fill="#f1a242" stroke="#f1a242"></path><path d="M448 83.7L410 99.7L416 144.6Z" fill="#eeb359" stroke="#eeb359"></path><path d="M460 257.1L519 223.3L502 191.4Z" fill="#fb6407" stroke="#fb6407"></path><path d="M502 191.4L563 186.4L550 125.6Z" fill="#fb6407" stroke="#fb6407"></path><path d="M460 257.1L502 191.4L466 179.3Z" fill="#ecc271" stroke="#ecc271"></path><path d="M460 257.1L466 179.3L455 172.4Z" fill="#f1a242" stroke="#f1a242"></path><path d="M535 218.3L563 186.4L502 191.4Z" fill="#f1a242" stroke="#f1a242"></path><path d="M550 125.6L609 108.6L550 94.7Z" fill="#ff4500" stroke="#ff4500"></path><path d="M448 83.7L410 82.7L410 99.7Z" fill="#f87c19" stroke="#f87c19"></path><path d="M407 33.9L410 82.7L448 83.7Z" fill="#f87c19" stroke="#f87c19"></path><path d="M519 223.3L535 218.3L502 191.4Z" fill="#eeb359" stroke="#eeb359"></path><path d="M527 79.7L466 41.9L501 102.6Z" fill="#fb6407" stroke="#fb6407"></path><path d="M550 94.7L541 58.9L527 79.7Z" fill="#ecdea6" stroke="#ecdea6"></path><path d="M527 79.7L541 58.9L466 41.9Z" fill="#ebd08b" stroke="#ebd08b"></path><path d="M563 186.4L589 152.4L550 125.6Z" fill="#fb6407" stroke="#fb6407"></path><path d="M550 94.7L568 37.9L541 58.9Z" fill="#fb6407" stroke="#fb6407"></path><path d="M368 162.6L380 183.4L416 144.6Z" fill="#f4902d" stroke="#f4902d"></path><path d="M416 144.6L380 183.4L455 172.4Z" fill="#ecdea6" stroke="#ecdea6"></path><path d="M369 124.7L416 144.6L410 99.7Z" fill="#fb6407" stroke="#fb6407"></path><path d="M410 82.7L369 124.7L410 99.7Z" fill="#ecdea6" stroke="#ecdea6"></path><path d="M363 140.4L368 162.6L416 144.6Z" fill="#f4902d" stroke="#f4902d"></path><path d="M380 183.4L460 257.1L455 172.4Z" fill="#ecc271" stroke="#ecc271"></path><path d="M558 252.1L566 225.1L535 218.3Z" fill="#ecc271" stroke="#ecc271"></path><path d="M558 252.1L535 218.3L519 223.3Z" fill="#eeb359" stroke="#eeb359"></path><path d="M535 218.3L566 225.1L563 186.4Z" fill="#ecc271" stroke="#ecc271"></path><path d="M563 186.4L610 160.4L589 152.4Z" fill="#fb6407" stroke="#fb6407"></path><path d="M369 124.7L363 140.4L416 144.6Z" fill="#ff4500" stroke="#ff4500"></path><path d="M589 214.3L610 160.4L563 186.4Z" fill="#eeb359" stroke="#eeb359"></path><path d="M589 152.4L609 108.6L550 125.6Z" fill="#ff4500" stroke="#ff4500"></path><path d="M566 225.1L589 214.3L563 186.4Z" fill="#efeac1" stroke="#efeac1"></path><path d="M610 160.4L609 108.6L589 152.4Z" fill="#ecc271" stroke="#ecc271"></path><path d="M466 41.9L407 33.9L448 83.7Z" fill="#f87c19" stroke="#f87c19"></path><path d="M361 17.9L318 119.6L369 124.7Z" fill="#f87c19" stroke="#f87c19"></path><path d="M609 108.6L568 37.9L550 94.7Z" fill="#ebd08b" stroke="#ebd08b"></path><path d="M541 58.9L504 0L466 41.9Z" fill="#f87c19" stroke="#f87c19"></path><path d="M466 41.9L447 0L407 33.9Z" fill="#f5f5dc" stroke="#f5f5dc"></path><path d="M462 278.1L558 252.1L519 223.3Z" fill="#efeac1" stroke="#efeac1"></path><path d="M566 225.1L590 241.3L589 214.3Z" fill="#efeac1" stroke="#efeac1"></path><path d="M447 300L462 278.1L421 300Z" fill="#f5f5dc" stroke="#f5f5dc"></path><path d="M460 257.1L462 278.1L519 223.3Z" fill="#f1a242" stroke="#f1a242"></path><path d="M559 0L504 0L541 58.9Z" fill="#eeb359" stroke="#eeb359"></path><path d="M504 0L456 0L466 41.9Z" fill="#f87c19" stroke="#f87c19"></path><path d="M456 0L447 0L466 41.9Z" fill="#f87c19" stroke="#f87c19"></path><path d="M558 252.1L590 241.3L566 225.1Z" fill="#f1a242" stroke="#f1a242"></path><path d="M650 180.3L631 154.6L610 160.4Z" fill="#efeac1" stroke="#efeac1"></path><path d="M650 180.3L610 160.4L589 214.3Z" fill="#ecdea6" stroke="#ecdea6"></path><path d="M610 160.4L631 154.6L609 108.6Z" fill="#ecdea6" stroke="#ecdea6"></path><path d="M346 222.3L360 231.3L380 183.4Z" fill="#f1a242" stroke="#f1a242"></path><path d="M380 183.4L360 231.3L460 257.1Z" fill="#ff4500" stroke="#ff4500"></path><path d="M346 222.3L380 183.4L368 162.6Z" fill="#f5f5dc" stroke="#f5f5dc"></path><path d="M447 0L423 0L407 33.9Z" fill="#f87c19" stroke="#f87c19"></path><path d="M322 155.4L346 222.3L368 162.6Z" fill="#fb6407" stroke="#fb6407"></path><path d="M589 0L559 0L568 37.9Z" fill="#f1a242" stroke="#f1a242"></path><path d="M568 37.9L559 0L541 58.9Z" fill="#f1a242" stroke="#f1a242"></path><path d="M634 50.7L568 37.9L609 108.6Z" fill="#eeb359" stroke="#eeb359"></path><path d="M631 154.6L642 125.6L609 108.6Z" fill="#fb6407" stroke="#fb6407"></path><path d="M318 119.6L322 155.4L363 140.4Z" fill="#eeb359" stroke="#eeb359"></path><path d="M363 140.4L322 155.4L368 162.6Z" fill="#ecdea6" stroke="#ecdea6"></path><path d="M318 119.6L363 140.4L369 124.7Z" fill="#f1a242" stroke="#f1a242"></path><path d="M369 124.7L410 82.7L361 17.9Z" fill="#f4902d" stroke="#f4902d"></path><path d="M421 300L462 278.1L460 257.1Z" fill="#f87c19" stroke="#f87c19"></path><path d="M462 278.1L566 300L558 252.1Z" fill="#f87c19" stroke="#f87c19"></path><path d="M558 252.1L566 300L590 241.3Z" fill="#f1a242" stroke="#f1a242"></path><path d="M421 300L460 257.1L400 300Z" fill="#ebd08b" stroke="#ebd08b"></path><path d="M361 17.9L410 82.7L407 33.9Z" fill="#ebd08b" stroke="#ebd08b"></path><path d="M400 300L460 257.1L360 231.3Z" fill="#ecc271" stroke="#ecc271"></path><path d="M645 218.1L650 180.3L589 214.3Z" fill="#ecdea6" stroke="#ecdea6"></path><path d="M631 154.6L650 180.3L642 125.6Z" fill="#f1a242" stroke="#f1a242"></path><path d="M372 0L367 12.9L407 33.9Z" fill="#f87c19" stroke="#f87c19"></path><path d="M367 12.9L361 17.9L407 33.9Z" fill="#f87c19" stroke="#f87c19"></path><path d="M651 87.7L609 108.6L642 125.6Z" fill="#f4902d" stroke="#f4902d"></path><path d="M651 87.7L634 50.7L609 108.6Z" fill="#ecc271" stroke="#ecc271"></path><path d="M637 24.9L589 0L568 37.9Z" fill="#f4902d" stroke="#f4902d"></path><path d="M704 93.7L651 87.7L642 125.6Z" fill="#ecc271" stroke="#ecc271"></path><path d="M423 0L372 0L407 33.9Z" fill="#eeb359" stroke="#eeb359"></path><path d="M367 12.9L372 0L361 17.9Z" fill="#ff4500" stroke="#ff4500"></path><path d="M359 272.1L400 300L360 231.3Z" fill="#f5f5dc" stroke="#f5f5dc"></path><path d="M447 300L566 300L462 278.1Z" fill="#f4902d" stroke="#f4902d"></path><path d="M590 241.3L645 218.1L589 214.3Z" fill="#eeb359" stroke="#eeb359"></path><path d="M660 268.1L645 218.1L590 241.3Z" fill="#ff4500" stroke="#ff4500"></path><path d="M333 300L359 272.1L275 248.1Z" fill="#ff4500" stroke="#ff4500"></path><path d="M346 222.3L359 272.1L360 231.3Z" fill="#ebd08b" stroke="#ebd08b"></path><path d="M359 272.1L380 295.1L400 300Z" fill="#ff4500" stroke="#ff4500"></path><path d="M695 6.9L637 24.9L634 50.7Z" fill="#efeac1" stroke="#efeac1"></path><path d="M634 50.7L637 24.9L568 37.9Z" fill="#f87c19" stroke="#f87c19"></path><path d="M566 300L601 300L590 241.3Z" fill="#ff4500" stroke="#ff4500"></path><path d="M271 47.9L284 124.7L318 119.6Z" fill="#f1a242" stroke="#f1a242"></path><path d="M318 119.6L284 124.7L322 155.4Z" fill="#ecdea6" stroke="#ecdea6"></path><path d="M322 155.4L287 184.3L346 222.3Z" fill="#f4902d" stroke="#f4902d"></path><path d="M324 11.9L318 119.6L361 17.9Z" fill="#ff4500" stroke="#ff4500"></path><path d="M284 124.7L287 184.3L322 155.4Z" fill="#f5f5dc" stroke="#f5f5dc"></path><path d="M372 0L324 11.9L361 17.9Z" fill="#f5f5dc" stroke="#f5f5dc"></path><path d="M601 300L660 268.1L590 241.3Z" fill="#ff4500" stroke="#ff4500"></path><path d="M645 218.1L706 196.4L650 180.3Z" fill="#f1a242" stroke="#f1a242"></path><path d="M726 159.4L704 93.7L642 125.6Z" fill="#ff4500" stroke="#ff4500"></path><path d="M275 248.1L359 272.1L346 222.3Z" fill="#f4902d" stroke="#f4902d"></path><path d="M359 272.1L333 300L380 295.1Z" fill="#ecc271" stroke="#ecc271"></path><path d="M380 295.1L333 300L400 300Z" fill="#f1a242" stroke="#f1a242"></path><path d="M284 124.7L260 150.6L287 184.3Z" fill="#ecc271" stroke="#ecc271"></path><path d="M287 184.3L275 248.1L346 222.3Z" fill="#f5f5dc" stroke="#f5f5dc"></path><path d="M232 108.6L260 150.6L284 124.7Z" fill="#f4902d" stroke="#f4902d"></path><path d="M726 159.4L642 125.6L650 180.3Z" fill="#efeac1" stroke="#efeac1"></path><path d="M651 87.7L705 90.6L634 50.7Z" fill="#efeac1" stroke="#efeac1"></path><path d="M767 55.7L705 90.6L788 102.6Z" fill="#f1a242" stroke="#f1a242"></path><path d="M704 93.7L705 90.6L651 87.7Z" fill="#ebd08b" stroke="#ebd08b"></path><path d="M660 268.1L706 196.4L645 218.1Z" fill="#fb6407" stroke="#fb6407"></path><path d="M324 11.9L271 47.9L318 119.6Z" fill="#f87c19" stroke="#f87c19"></path><path d="M232 221.1L275 248.1L287 184.3Z" fill="#fb6407" stroke="#fb6407"></path><path d="M232 108.6L249 159.4L260 150.6Z" fill="#ecc271" stroke="#ecc271"></path><path d="M260 150.6L249 159.4L287 184.3Z" fill="#eeb359" stroke="#eeb359"></path><path d="M601 300L657 300L660 268.1Z" fill="#f4902d" stroke="#f4902d"></path><path d="M714 267.1L730 203.3L706 196.4Z" fill="#ecc271" stroke="#ecc271"></path><path d="M657 300L658 300L660 268.1Z" fill="#f87c19" stroke="#f87c19"></path><path d="M737 160.4L726 159.4L730 203.3Z" fill="#efeac1" stroke="#efeac1"></path><path d="M706 196.4L726 159.4L650 180.3Z" fill="#ebd08b" stroke="#ebd08b"></path><path d="M271 47.9L244 79.7L284 124.7Z" fill="#eeb359" stroke="#eeb359"></path><path d="M699 0L695 6.9L715 12.9Z" fill="#f87c19" stroke="#f87c19"></path><path d="M705 90.6L695 6.9L634 50.7Z" fill="#eeb359" stroke="#eeb359"></path><path d="M637 24.9L699 0L589 0Z" fill="#ebd08b" stroke="#ebd08b"></path><path d="M244 79.7L232 108.6L284 124.7Z" fill="#fb6407" stroke="#fb6407"></path><path d="M249 159.4L232 221.1L287 184.3Z" fill="#fb6407" stroke="#fb6407"></path><path d="M372 0L270 0L324 11.9Z" fill="#fb6407" stroke="#fb6407"></path><path d="M324 11.9L270 0L271 47.9Z" fill="#eeb359" stroke="#eeb359"></path><path d="M271 47.9L203 54.7L244 79.7Z" fill="#ebd08b" stroke="#ebd08b"></path><path d="M184 107.6L202 145.6L232 108.6Z" fill="#efeac1" stroke="#efeac1"></path><path d="M730 203.3L726 159.4L706 196.4Z" fill="#fb6407" stroke="#fb6407"></path><path d="M726 159.4L737 160.4L704 93.7Z" fill="#eeb359" stroke="#eeb359"></path><path d="M714 267.1L706 196.4L660 268.1Z" fill="#ecc271" stroke="#ecc271"></path><path d="M715 12.9L695 6.9L705 90.6Z" fill="#ecdea6" stroke="#ecdea6"></path><path d="M695 6.9L699 0L637 24.9Z" fill="#f4902d" stroke="#f4902d"></path><path d="M212 203.3L232 221.1L249 159.4Z" fill="#f5f5dc" stroke="#f5f5dc"></path><path d="M275 248.1L259 300L333 300Z" fill="#fb6407" stroke="#fb6407"></path><path d="M658 300L714 267.1L660 268.1Z" fill="#ecdea6" stroke="#ecdea6"></path><path d="M744 0L715 12.9L755 10.9Z" fill="#ff4500" stroke="#ff4500"></path><path d="M229 300L259 300L275 248.1Z" fill="#f87c19" stroke="#f87c19"></path><path d="M744 0L721 0L715 12.9Z" fill="#f1a242" stroke="#f1a242"></path><path d="M715 12.9L721 0L699 0Z" fill="#f5f5dc" stroke="#f5f5dc"></path><path d="M202 145.6L212 203.3L249 159.4Z" fill="#f5f5dc" stroke="#f5f5dc"></path><path d="M232 221.1L229 300L275 248.1Z" fill="#f4902d" stroke="#f4902d"></path><path d="M232 108.6L202 145.6L249 159.4Z" fill="#eeb359" stroke="#eeb359"></path><path d="M203 54.7L232 108.6L244 79.7Z" fill="#efeac1" stroke="#efeac1"></path><path d="M270 0L238 0L271 47.9Z" fill="#ecc271" stroke="#ecc271"></path><path d="M730 203.3L765 178.3L737 160.4Z" fill="#ff4500" stroke="#ff4500"></path><path d="M788 102.6L705 90.6L704 93.7Z" fill="#f4902d" stroke="#f4902d"></path><path d="M794 193.4L765 178.3L799 221.1Z" fill="#f1a242" stroke="#f1a242"></path><path d="M238 0L203 54.7L271 47.9Z" fill="#ecc271" stroke="#ecc271"></path><path d="M187 217.1L196 206.4L176 207.3Z" fill="#fb6407" stroke="#fb6407"></path><path d="M202 145.6L196 206.4L212 203.3Z" fill="#ecc271" stroke="#ecc271"></path><path d="M212 203.3L187 217.1L232 221.1Z" fill="#ecc271" stroke="#ecc271"></path><path d="M658 300L732 300L714 267.1Z" fill="#f87c19" stroke="#f87c19"></path><path d="M799 221.1L765 178.3L730 203.3Z" fill="#f5f5dc" stroke="#f5f5dc"></path><path d="M767 55.7L715 12.9L705 90.6Z" fill="#f5f5dc" stroke="#f5f5dc"></path><path d="M788 102.6L704 93.7L737 160.4Z" fill="#f1a242" stroke="#f1a242"></path><path d="M192 248.3L229 300L232 221.1Z" fill="#f5f5dc" stroke="#f5f5dc"></path><path d="M203 54.7L184 107.6L232 108.6Z" fill="#ebd08b" stroke="#ebd08b"></path><path d="M767 55.7L755 10.9L715 12.9Z" fill="#fb6407" stroke="#fb6407"></path><path d="M176 207.3L196 206.4L202 145.6Z" fill="#f87c19" stroke="#f87c19"></path><path d="M196 206.4L187 217.1L212 203.3Z" fill="#ff4500" stroke="#ff4500"></path><path d="M830 141.4L788 102.6L765 178.3Z" fill="#ecc271" stroke="#ecc271"></path><path d="M765 178.3L788 102.6L737 160.4Z" fill="#eeb359" stroke="#eeb359"></path><path d="M767 55.7L803 51.7L755 10.9Z" fill="#eeb359" stroke="#eeb359"></path><path d="M238 0L205 4.9L203 54.7Z" fill="#f5f5dc" stroke="#f5f5dc"></path><path d="M119 60.9L135 161.4L184 107.6Z" fill="#f1a242" stroke="#f1a242"></path><path d="M187 217.1L192 248.3L232 221.1Z" fill="#f87c19" stroke="#f87c19"></path><path d="M135 161.4L176 207.3L202 145.6Z" fill="#eeb359" stroke="#eeb359"></path><path d="M187 217.1L183 243.1L192 248.3Z" fill="#f87c19" stroke="#f87c19"></path><path d="M799 221.1L730 203.3L714 267.1Z" fill="#ecc271" stroke="#ecc271"></path><path d="M732 300L756 300L714 267.1Z" fill="#f1a242" stroke="#f1a242"></path><path d="M176 207.3L183 243.1L187 217.1Z" fill="#eeb359" stroke="#eeb359"></path><path d="M192 248.3L202 300L229 300Z" fill="#ebd08b" stroke="#ebd08b"></path><path d="M146 300L202 300L192 248.3Z" fill="#eeb359" stroke="#eeb359"></path><path d="M756 300L799 221.1L714 267.1Z" fill="#ecdea6" stroke="#ecdea6"></path><path d="M828 57.9L803 51.7L788 102.6Z" fill="#efeac1" stroke="#efeac1"></path><path d="M830 141.4L765 178.3L794 193.4Z" fill="#ecc271" stroke="#ecc271"></path><path d="M788 102.6L803 51.7L767 55.7Z" fill="#eeb359" stroke="#eeb359"></path><path d="M755 10.9L853 0L744 0Z" fill="#ff4500" stroke="#ff4500"></path><path d="M831 142.6L830 141.4L794 193.4Z" fill="#eeb359" stroke="#eeb359"></path><path d="M94 300L146 300L75 247.1Z" fill="#f87c19" stroke="#f87c19"></path><path d="M183 243.1L146 300L192 248.3Z" fill="#ecc271" stroke="#ecc271"></path><path d="M184 107.6L135 161.4L202 145.6Z" fill="#f4902d" stroke="#f4902d"></path><path d="M132 56.7L184 107.6L203 54.7Z" fill="#ebd08b" stroke="#ebd08b"></path><path d="M854 197.3L831 142.6L794 193.4Z" fill="#f5f5dc" stroke="#f5f5dc"></path><path d="M842 69.9L828 57.9L788 102.6Z" fill="#efeac1" stroke="#efeac1"></path><path d="M238 0L160 0L205 4.9Z" fill="#f4902d" stroke="#f4902d"></path><path d="M205 4.9L160 0L203 54.7Z" fill="#fb6407" stroke="#fb6407"></path><path d="M842 69.9L788 102.6L830 141.4Z" fill="#ecc271" stroke="#ecc271"></path><path d="M803 51.7L853 0L755 10.9Z" fill="#ecdea6" stroke="#ecdea6"></path><path d="M160 0L132 56.7L203 54.7Z" fill="#f5f5dc" stroke="#f5f5dc"></path><path d="M756 300L812 300L799 221.1Z" fill="#efeac1" stroke="#efeac1"></path><path d="M799 221.1L854 197.3L794 193.4Z" fill="#ecdea6" stroke="#ecdea6"></path><path d="M877 117.6L842 69.9L830 141.4Z" fill="#f4902d" stroke="#f4902d"></path><path d="M877 117.6L830 141.4L831 142.6Z" fill="#ecdea6" stroke="#ecdea6"></path><path d="M812 300L823 290.1L799 221.1Z" fill="#ebd08b" stroke="#ebd08b"></path><path d="M89 35.9L119 60.9L132 56.7Z" fill="#f4902d" stroke="#f4902d"></path><path d="M132 56.7L119 60.9L184 107.6Z" fill="#ebd08b" stroke="#ebd08b"></path><path d="M146 300L183 243.1L75 247.1Z" fill="#f87c19" stroke="#f87c19"></path><path d="M75 245.3L176 207.3L135 161.4Z" fill="#fb6407" stroke="#fb6407"></path><path d="M823 290.1L854 197.3L799 221.1Z" fill="#eeb359" stroke="#eeb359"></path><path d="M812 300L845 297.1L823 290.1Z" fill="#f1a242" stroke="#f1a242"></path><path d="M823 290.1L845 297.1L854 197.3Z" fill="#fb6407" stroke="#fb6407"></path><path d="M891 192.3L831 142.6L854 197.3Z" fill="#ebd08b" stroke="#ebd08b"></path><path d="M891 192.3L877 117.6L831 142.6Z" fill="#f5f5dc" stroke="#f5f5dc"></path><path d="M862 0L828 57.9L842 69.9Z" fill="#ebd08b" stroke="#ebd08b"></path><path d="M862 0L853 0L828 57.9Z" fill="#f87c19" stroke="#f87c19"></path><path d="M828 57.9L853 0L803 51.7Z" fill="#f1a242" stroke="#f1a242"></path><path d="M160 0L111 0L132 56.7Z" fill="#f87c19" stroke="#f87c19"></path><path d="M77 89.6L77 142.6L135 161.4Z" fill="#f1a242" stroke="#f1a242"></path><path d="M904 63.7L862 0L842 69.9Z" fill="#ecdea6" stroke="#ecdea6"></path><path d="M77 89.6L135 161.4L119 60.9Z" fill="#ecc271" stroke="#ecc271"></path><path d="M111 0L89 35.9L132 56.7Z" fill="#f5f5dc" stroke="#f5f5dc"></path><path d="M84 44.7L77 89.6L119 60.9Z" fill="#efeac1" stroke="#efeac1"></path><path d="M89 35.9L84 44.7L119 60.9Z" fill="#f5f5dc" stroke="#f5f5dc"></path><path d="M898 281.1L891 192.3L854 197.3Z" fill="#f5f5dc" stroke="#f5f5dc"></path><path d="M877 117.6L903 86.7L842 69.9Z" fill="#eeb359" stroke="#eeb359"></path><path d="M938 162.4L897 110.6L877 117.6Z" fill="#ebd08b" stroke="#ebd08b"></path><path d="M25 168.4L68 183.4L77 142.6Z" fill="#fb6407" stroke="#fb6407"></path><path d="M77 142.6L68 183.4L135 161.4Z" fill="#f5f5dc" stroke="#f5f5dc"></path><path d="M75 245.3L183 243.1L176 207.3Z" fill="#ebd08b" stroke="#ebd08b"></path><path d="M68 183.4L75 245.3L135 161.4Z" fill="#ecc271" stroke="#ecc271"></path><path d="M58 226.1L75 247.1L75 245.3Z" fill="#f4902d" stroke="#f4902d"></path><path d="M75 245.3L75 247.1L183 243.1Z" fill="#f1a242" stroke="#f1a242"></path><path d="M84 44.7L62 92.7L77 89.6Z" fill="#efeac1" stroke="#efeac1"></path><path d="M77 89.6L62 92.7L77 142.6Z" fill="#ff4500" stroke="#ff4500"></path><path d="M89 35.9L57 9.9L84 44.7Z" fill="#f87c19" stroke="#f87c19"></path><path d="M84 44.7L57 9.9L62 92.7Z" fill="#f5f5dc" stroke="#f5f5dc"></path><path d="M111 0L83 0L89 35.9Z" fill="#f87c19" stroke="#f87c19"></path><path d="M935 72.9L903 86.7L897 110.6Z" fill="#f1a242" stroke="#f1a242"></path><path d="M897 110.6L903 86.7L877 117.6Z" fill="#f87c19" stroke="#f87c19"></path><path d="M903 86.7L904 63.7L842 69.9Z" fill="#efeac1" stroke="#efeac1"></path><path d="M25 168.4L58 209.3L68 183.4Z" fill="#f87c19" stroke="#f87c19"></path><path d="M68 183.4L58 209.3L75 245.3Z" fill="#ecdea6" stroke="#ecdea6"></path><path d="M75 247.1L12 300L94 300Z" fill="#fb6407" stroke="#fb6407"></path><path d="M58 209.3L58 226.1L75 245.3Z" fill="#f5f5dc" stroke="#f5f5dc"></path><path d="M83 0L70 0L89 35.9Z" fill="#f1a242" stroke="#f1a242"></path><path d="M845 297.1L898 281.1L854 197.3Z" fill="#f1a242" stroke="#f1a242"></path><path d="M891 192.3L938 162.4L877 117.6Z" fill="#f4902d" stroke="#f4902d"></path><path d="M903 86.7L935 72.9L904 63.7Z" fill="#ebd08b" stroke="#ebd08b"></path><path d="M812 300L892 300L845 297.1Z" fill="#f5f5dc" stroke="#f5f5dc"></path><path d="M845 297.1L892 300L898 281.1Z" fill="#f5f5dc" stroke="#f5f5dc"></path><path d="M70 0L57 9.9L89 35.9Z" fill="#efeac1" stroke="#efeac1"></path><path d="M0 143.4L25 168.4L0 127.6Z" fill="#ebd08b" stroke="#ebd08b"></path><path d="M58 209.3L0 196.3L58 226.1Z" fill="#eeb359" stroke="#eeb359"></path><path d="M960 263.1L928 234.3L898 281.1Z" fill="#f87c19" stroke="#f87c19"></path><path d="M898 281.1L928 234.3L891 192.3Z" fill="#fb6407" stroke="#fb6407"></path><path d="M960 186.4L938 162.4L891 192.3Z" fill="#f1a242" stroke="#f1a242"></path><path d="M960 141.6L935 72.9L897 110.6Z" fill="#f87c19" stroke="#f87c19"></path><path d="M904 63.7L941 0L862 0Z" fill="#fb6407" stroke="#fb6407"></path><path d="M25 168.4L77 142.6L0 127.6Z" fill="#eeb359" stroke="#eeb359"></path><path d="M58 226.1L0 248.1L75 247.1Z" fill="#fb6407" stroke="#fb6407"></path><path d="M892 300L915 300L898 281.1Z" fill="#f5f5dc" stroke="#f5f5dc"></path><path d="M960 186.4L960 141.6L938 162.4Z" fill="#ff4500" stroke="#ff4500"></path><path d="M938 162.4L960 141.6L897 110.6Z" fill="#f4902d" stroke="#f4902d"></path><path d="M960 186.4L891 192.3L960 210.3Z" fill="#f1a242" stroke="#f1a242"></path><path d="M960 60.9L941 0L935 72.9Z" fill="#f1a242" stroke="#f1a242"></path><path d="M935 72.9L941 0L904 63.7Z" fill="#ff4500" stroke="#ff4500"></path><path d="M960 210.3L891 192.3L928 234.3Z" fill="#fb6407" stroke="#fb6407"></path><path d="M960 263.1L960 210.3L928 234.3Z" fill="#ecc271" stroke="#ecc271"></path><path d="M0 127.6L77 142.6L62 92.7Z" fill="#f87c19" stroke="#f87c19"></path><path d="M25 168.4L0 196.3L58 209.3Z" fill="#f1a242" stroke="#f1a242"></path><path d="M960 141.6L960 69.7L935 72.9Z" fill="#eeb359" stroke="#eeb359"></path><path d="M0 110.7L0 127.6L62 92.7Z" fill="#f87c19" stroke="#f87c19"></path><path d="M0 8.9L0 110.7L62 92.7Z" fill="#efeac1" stroke="#efeac1"></path><path d="M960 69.7L960 60.9L935 72.9Z" fill="#f5f5dc" stroke="#f5f5dc"></path><path d="M0 143.4L0 196.3L25 168.4Z" fill="#fb6407" stroke="#fb6407"></path><path d="M915 300L960 263.1L898 281.1Z" fill="#f1a242" stroke="#f1a242"></path><path d="M0 196.3L0 248.1L58 226.1Z" fill="#f5f5dc" stroke="#f5f5dc"></path><path d="M0 248.1L12 300L75 247.1Z" fill="#ebd08b" stroke="#ebd08b"></path><path d="M960 60.9L960 0L941 0Z" fill="#f5f5dc" stroke="#f5f5dc"></path><path d="M0 0L0 8.9L57 9.9Z" fill="#ecdea6" stroke="#ecdea6"></path><path d="M57 9.9L0 8.9L62 92.7Z" fill="#ecdea6" stroke="#ecdea6"></path><path d="M70 0L0 0L57 9.9Z" fill="#ecdea6" stroke="#ecdea6"></path><path d="M915 300L960 300L960 263.1Z" fill="#f4902d" stroke="#f4902d"></path><path d="M0 248.1L0 300L12 300Z" fill="#f4902d" stroke="#f4902d"></path></g></svg>