<svg id="visual" viewBox="0 0 960 300" width="960" height="300" xmlns="http://www.w3.org/2000/svg" xmlns:xlink="http://www.w3.org/1999/xlink" version="1.1"><g stroke-width="19" stroke-linejoin="bevel"><path d="M476.4 157L512.6 106L420.1 60Z" fill="#960702" stroke="#f5f5dc"></path><path d="M420.1 60L397.4 102L476.4 157Z" fill="#e73803" stroke="#f5f5dc"></path><path d="M397.4 102L412.4 153L476.4 157Z" fill="#ff4500" stroke="#f5f5dc"></path><path d="M507.6 0L421.1 0L420.1 60Z" fill="#d02b04" stroke="#f5f5dc"></path><path d="M420.1 60L344.8 88L397.4 102Z" fill="#960702" stroke="#f5f5dc"></path><path d="M375.4 0L344.8 88L420.1 60Z" fill="#8b0000" stroke="#f5f5dc"></path><path d="M397.4 102L368.1 181L412.4 153Z" fill="#a10f03" stroke="#f5f5dc"></path><path d="M512.6 106L507.6 0L420.1 60Z" fill="#db3103" stroke="#f5f5dc"></path><path d="M344.8 88L368.1 181L397.4 102Z" fill="#e73803" stroke="#f5f5dc"></path><path d="M412.4 153L479.6 280L476.4 157Z" fill="#ad1704" stroke="#f5f5dc"></path><path d="M421.1 0L375.4 0L420.1 60Z" fill="#db3103" stroke="#f5f5dc"></path><path d="M375.4 0L346.8 0L344.8 88Z" fill="#db3103" stroke="#f5f5dc"></path><path d="M647.2 100L602.9 51L512.6 106Z" fill="#960702" stroke="#f5f5dc"></path><path d="M512.6 106L602.9 51L507.6 0Z" fill="#d02b04" stroke="#f5f5dc"></path><path d="M479.6 280L595.9 194L476.4 157Z" fill="#db3103" stroke="#f5f5dc"></path><path d="M476.4 157L595.9 194L512.6 106Z" fill="#c42404" stroke="#f5f5dc"></path><path d="M647.2 100L612.2 37L602.9 51Z" fill="#db3103" stroke="#f5f5dc"></path><path d="M602.9 51L612.2 37L507.6 0Z" fill="#d02b04" stroke="#f5f5dc"></path><path d="M346.8 0L284.1 91L344.8 88Z" fill="#b81d04" stroke="#f5f5dc"></path><path d="M344.8 88L284.1 91L368.1 181Z" fill="#8b0000" stroke="#f5f5dc"></path><path d="M368.1 181L479.6 280L412.4 153Z" fill="#ff4500" stroke="#f5f5dc"></path><path d="M595.9 194L647.2 100L512.6 106Z" fill="#ff4500" stroke="#f5f5dc"></path><path d="M409.1 300L478.6 300L479.6 280Z" fill="#ad1704" stroke="#f5f5dc"></path><path d="M531.4 300L621.6 222L595.9 194Z" fill="#db3103" stroke="#f5f5dc"></path><path d="M409.1 300L479.6 280L368.1 181Z" fill="#ad1704" stroke="#f5f5dc"></path><path d="M273.8 302L409.1 300L368.1 181Z" fill="#960702" stroke="#f5f5dc"></path><path d="M531.4 300L595.9 194L479.6 280Z" fill="#ad1704" stroke="#f5f5dc"></path><path d="M595.9 194L701.9 201L647.2 100Z" fill="#d02b04" stroke="#f5f5dc"></path><path d="M478.6 300L531.4 300L479.6 280Z" fill="#a10f03" stroke="#f5f5dc"></path><path d="M205.5 56L229.8 101L284.1 91Z" fill="#b81d04" stroke="#f5f5dc"></path><path d="M284.1 91L229.8 101L368.1 181Z" fill="#d02b04" stroke="#f5f5dc"></path><path d="M723.2 0L680.9 0L647.2 100Z" fill="#db3103" stroke="#f5f5dc"></path><path d="M647.2 100L680.9 0L612.2 37Z" fill="#db3103" stroke="#f5f5dc"></path><path d="M612.2 37L680.9 0L507.6 0Z" fill="#ff4500" stroke="#f5f5dc"></path><path d="M205.5 -1L205.5 56L284.1 91Z" fill="#ad1704" stroke="#f5f5dc"></path><path d="M531.4 300L627.9 300L621.6 222Z" fill="#db3103" stroke="#f5f5dc"></path><path d="M621.6 222L701.9 201L595.9 194Z" fill="#a10f03" stroke="#f5f5dc"></path><path d="M627.9 300L701.9 201L621.6 222Z" fill="#e73803" stroke="#f5f5dc"></path><path d="M176.5 163L273.8 302L368.1 181Z" fill="#8b0000" stroke="#f5f5dc"></path><path d="M409.1 300L273.8 302L478.6 300Z" fill="#ad1704" stroke="#f5f5dc"></path><path d="M478.6 300L273.8 302L531.4 300Z" fill="#e73803" stroke="#f5f5dc"></path><path d="M531.4 300L273.8 302L627.9 300Z" fill="#a10f03" stroke="#f5f5dc"></path><path d="M176.5 163L368.1 181L229.8 101Z" fill="#960702" stroke="#f5f5dc"></path><path d="M346.8 0L205.5 -1L284.1 91Z" fill="#960702" stroke="#f5f5dc"></path><path d="M375.4 0L205.5 -1L346.8 0Z" fill="#960702" stroke="#f5f5dc"></path><path d="M421.1 0L205.5 -1L375.4 0Z" fill="#c42404" stroke="#f5f5dc"></path><path d="M507.6 0L205.5 -1L421.1 0Z" fill="#b81d04" stroke="#f5f5dc"></path><path d="M680.9 0L205.5 -1L507.6 0Z" fill="#8b0000" stroke="#f5f5dc"></path><path d="M145.3 9L176.5 163L205.5 56Z" fill="#ff4500" stroke="#f5f5dc"></path><path d="M205.5 56L176.5 163L229.8 101Z" fill="#8b0000" stroke="#f5f5dc"></path><path d="M812.7 92L723.2 0L647.2 100Z" fill="#e73803" stroke="#f5f5dc"></path><path d="M680.9 0L723.2 0L205.5 -1Z" fill="#a10f03" stroke="#f5f5dc"></path><path d="M205.5 -1L186.5 0L205.5 56Z" fill="#b81d04" stroke="#f5f5dc"></path><path d="M176.5 163L208.5 300L273.8 302Z" fill="#b81d04" stroke="#f5f5dc"></path><path d="M186.5 0L145.3 9L205.5 56Z" fill="#db3103" stroke="#f5f5dc"></path><path d="M796.2 277L776.5 176L701.9 201Z" fill="#c42404" stroke="#f5f5dc"></path><path d="M701.9 201L776.5 176L647.2 100Z" fill="#ad1704" stroke="#f5f5dc"></path><path d="M627.9 300L744.2 300L701.9 201Z" fill="#c42404" stroke="#f5f5dc"></path><path d="M273.8 302L744.2 300L627.9 300Z" fill="#a10f03" stroke="#f5f5dc"></path><path d="M27.3 249L162.8 300L176.5 163Z" fill="#c42404" stroke="#f5f5dc"></path><path d="M176.5 163L162.8 300L208.5 300Z" fill="#f33e02" stroke="#f5f5dc"></path><path d="M208.5 300L162.8 300L273.8 302Z" fill="#8b0000" stroke="#f5f5dc"></path><path d="M273.8 302L749.5 300L744.2 300Z" fill="#f33e02" stroke="#f5f5dc"></path><path d="M744.2 300L749.5 300L701.9 201Z" fill="#8b0000" stroke="#f5f5dc"></path><path d="M776.5 176L812.7 92L647.2 100Z" fill="#a10f03" stroke="#f5f5dc"></path><path d="M821.5 139L812.7 92L776.5 176Z" fill="#a10f03" stroke="#f5f5dc"></path><path d="M796.2 277L821.5 139L776.5 176Z" fill="#c42404" stroke="#f5f5dc"></path><path d="M749.5 300L796.2 277L701.9 201Z" fill="#a10f03" stroke="#f5f5dc"></path><path d="M273.8 302L800.5 300L749.5 300Z" fill="#f33e02" stroke="#f5f5dc"></path><path d="M749.5 300L800.5 300L796.2 277Z" fill="#c42404" stroke="#f5f5dc"></path><path d="M884.7 300L904.7 130L821.5 139Z" fill="#c42404" stroke="#f5f5dc"></path><path d="M853.7 0L842.5 0L812.7 92Z" fill="#db3103" stroke="#f5f5dc"></path><path d="M812.7 92L842.5 0L723.2 0Z" fill="#8b0000" stroke="#f5f5dc"></path><path d="M723.2 0L842.5 0L205.5 -1Z" fill="#e73803" stroke="#f5f5dc"></path><path d="M853.7 0L812.7 92L904.7 130Z" fill="#d02b04" stroke="#f5f5dc"></path><path d="M904.7 130L812.7 92L821.5 139Z" fill="#db3103" stroke="#f5f5dc"></path><path d="M842.5 0L853.7 0L205.5 -1Z" fill="#a10f03" stroke="#f5f5dc"></path><path d="M186.5 0L39.3 0L145.3 9Z" fill="#d02b04" stroke="#f5f5dc"></path><path d="M145.3 9L0 39L176.5 163Z" fill="#8b0000" stroke="#f5f5dc"></path><path d="M205.5 -1L39.3 0L186.5 0Z" fill="#a10f03" stroke="#f5f5dc"></path><path d="M0 39L23.3 203L176.5 163Z" fill="#c42404" stroke="#f5f5dc"></path><path d="M884.7 300L821.5 139L796.2 277Z" fill="#a10f03" stroke="#f5f5dc"></path><path d="M23.3 203L27.3 249L176.5 163Z" fill="#8b0000" stroke="#f5f5dc"></path><path d="M39.3 0L0 39L145.3 9Z" fill="#960702" stroke="#f5f5dc"></path><path d="M23.3 203L0 216L27.3 249Z" fill="#c42404" stroke="#f5f5dc"></path><path d="M205.5 -1L0 0L39.3 0Z" fill="#b81d04" stroke="#f5f5dc"></path><path d="M39.3 0L0 0L0 39Z" fill="#b81d04" stroke="#f5f5dc"></path><path d="M0 39L0 216L23.3 203Z" fill="#e73803" stroke="#f5f5dc"></path><path d="M273.8 302L884.7 300L800.5 300Z" fill="#8b0000" stroke="#f5f5dc"></path><path d="M800.5 300L884.7 300L796.2 277Z" fill="#db3103" stroke="#f5f5dc"></path><path d="M0 216L0 256L27.3 249Z" fill="#c42404" stroke="#f5f5dc"></path><path d="M27.3 249L5.3 300L162.8 300Z" fill="#a10f03" stroke="#f5f5dc"></path><path d="M0 256L5.3 300L27.3 249Z" fill="#c42404" stroke="#f5f5dc"></path><path d="M162.8 300L5.3 300L273.8 302Z" fill="#b81d04" stroke="#f5f5dc"></path><path d="M0 256L0 300L5.3 300Z" fill="#ff4500" stroke="#f5f5dc"></path><path d="M5.3 300L0 300L273.8 302Z" fill="#e73803" stroke="#f5f5dc"></path><path d="M960 124L960 117L904.7 130Z" fill="#960702" stroke="#f5f5dc"></path><path d="M904.7 130L960 0L853.7 0Z" fill="#ad1704" stroke="#f5f5dc"></path><path d="M960 275L960 124L904.7 130Z" fill="#a10f03" stroke="#f5f5dc"></path><path d="M960 275L967.7 110L960 124Z" fill="#e73803" stroke="#f5f5dc"></path><path d="M960 124L967.7 110L960 117Z" fill="#e73803" stroke="#f5f5dc"></path><path d="M960 117L967.7 110L904.7 130Z" fill="#ad1704" stroke="#f5f5dc"></path><path d="M967.7 110L960 0L904.7 130Z" fill="#f33e02" stroke="#f5f5dc"></path><path d="M853.7 0L960 0L205.5 -1Z" fill="#ad1704" stroke="#f5f5dc"></path><path d="M884.7 300L960 275L904.7 130Z" fill="#d02b04" stroke="#f5f5dc"></path><path d="M273.8 302L960 300L884.7 300Z" fill="#e73803" stroke="#f5f5dc"></path><path d="M884.7 300L960 300L960 275Z" fill="#db3103" stroke="#f5f5dc"></path><path d="M960 275L960 300L967.7 110Z" fill="#ff4500" stroke="#f5f5dc"></path></g></svg>