<svg id="visual" viewBox="0 0 960 300" width="960" height="300" xmlns="http://www.w3.org/2000/svg" xmlns:xlink="http://www.w3.org/1999/xlink" version="1.1"><path d="M0 67L14.5 63.5C29 60 58 53 87.2 51C116.3 49 145.7 52 174.8 59.5C204 67 233 79 262 82C291 85 320 79 349 75.5C378 72 407 71 436.2 71.5C465.3 72 494.7 74 523.8 69.5C553 65 582 54 611 49.5C640 45 669 47 698 48.5C727 50 756 51 785.2 56.5C814.3 62 843.7 72 872.8 70.5C902 69 931 56 945.5 49.5L960 43L960 0L945.5 0C931 0 902 0 872.8 0C843.7 0 814.3 0 785.2 0C756 0 727 0 698 0C669 0 640 0 611 0C582 0 553 0 523.8 0C494.7 0 465.3 0 436.2 0C407 0 378 0 349 0C320 0 291 0 262 0C233 0 204 0 174.8 0C145.7 0 116.3 0 87.2 0C58 0 29 0 14.5 0L0 0Z" fill="#4b0082"></path><path d="M0 109L14.5 103C29 97 58 85 87.2 86C116.3 87 145.7 101 174.8 110C204 119 233 123 262 120.5C291 118 320 109 349 109C378 109 407 118 436.2 122.5C465.3 127 494.7 127 523.8 119.5C553 112 582 97 611 87.5C640 78 669 74 698 79C727 84 756 98 785.2 109C814.3 120 843.7 128 872.8 121.5C902 115 931 94 945.5 83.5L960 73L960 41L945.5 47.5C931 54 902 67 872.8 68.5C843.7 70 814.3 60 785.2 54.5C756 49 727 48 698 46.5C669 45 640 43 611 47.5C582 52 553 63 523.8 67.5C494.7 72 465.3 70 436.2 69.5C407 69 378 70 349 73.5C320 77 291 83 262 80C233 77 204 65 174.8 57.5C145.7 50 116.3 47 87.2 49C58 51 29 58 14.5 61.5L0 65Z" fill="#6e0080"></path><path d="M0 127L14.5 123C29 119 58 111 87.2 113C116.3 115 145.7 127 174.8 136C204 145 233 151 262 146.5C291 142 320 127 349 126.5C378 126 407 140 436.2 148.5C465.3 157 494.7 160 523.8 152C553 144 582 125 611 115C640 105 669 104 698 107.5C727 111 756 119 785.2 130.5C814.3 142 843.7 157 872.8 151C902 145 931 118 945.5 104.5L960 91L960 71L945.5 81.5C931 92 902 113 872.8 119.5C843.7 126 814.3 118 785.2 107C756 96 727 82 698 77C669 72 640 76 611 85.5C582 95 553 110 523.8 117.5C494.7 125 465.3 125 436.2 120.5C407 116 378 107 349 107C320 107 291 116 262 118.5C233 121 204 117 174.8 108C145.7 99 116.3 85 87.2 84C58 83 29 95 14.5 101L0 107Z" fill="#8a077e"></path><path d="M0 151L14.5 150C29 149 58 147 87.2 147.5C116.3 148 145.7 151 174.8 156.5C204 162 233 170 262 170.5C291 171 320 164 349 164C378 164 407 171 436.2 174.5C465.3 178 494.7 178 523.8 173.5C553 169 582 160 611 155C640 150 669 149 698 148C727 147 756 146 785.2 152C814.3 158 843.7 171 872.8 167C902 163 931 142 945.5 131.5L960 121L960 89L945.5 102.5C931 116 902 143 872.8 149C843.7 155 814.3 140 785.2 128.5C756 117 727 109 698 105.5C669 102 640 103 611 113C582 123 553 142 523.8 150C494.7 158 465.3 155 436.2 146.5C407 138 378 124 349 124.5C320 125 291 140 262 144.5C233 149 204 143 174.8 134C145.7 125 116.3 113 87.2 111C58 109 29 117 14.5 121L0 125Z" fill="#a21b7c"></path><path d="M0 226L14.5 226C29 226 58 226 87.2 226C116.3 226 145.7 226 174.8 229.5C204 233 233 240 262 236.5C291 233 320 219 349 216C378 213 407 221 436.2 226.5C465.3 232 494.7 235 523.8 233C553 231 582 224 611 222.5C640 221 669 225 698 225.5C727 226 756 223 785.2 220C814.3 217 843.7 214 872.8 215C902 216 931 221 945.5 223.5L960 226L960 119L945.5 129.5C931 140 902 161 872.8 165C843.7 169 814.3 156 785.2 150C756 144 727 145 698 146C669 147 640 148 611 153C582 158 553 167 523.8 171.5C494.7 176 465.3 176 436.2 172.5C407 169 378 162 349 162C320 162 291 169 262 168.5C233 168 204 160 174.8 154.5C145.7 149 116.3 146 87.2 145.5C58 145 29 147 14.5 148L0 149Z" fill="#b62f7a"></path><path d="M0 250L14.5 247.5C29 245 58 240 87.2 239C116.3 238 145.7 241 174.8 244.5C204 248 233 252 262 250C291 248 320 240 349 238C378 236 407 240 436.2 243.5C465.3 247 494.7 250 523.8 249.5C553 249 582 245 611 244C640 243 669 245 698 245.5C727 246 756 245 785.2 244C814.3 243 843.7 242 872.8 240.5C902 239 931 237 945.5 236L960 235L960 224L945.5 221.5C931 219 902 214 872.8 213C843.7 212 814.3 215 785.2 218C756 221 727 224 698 223.5C669 223 640 219 611 220.5C582 222 553 229 523.8 231C494.7 233 465.3 230 436.2 224.5C407 219 378 211 349 214C320 217 291 231 262 234.5C233 238 204 231 174.8 227.5C145.7 224 116.3 224 87.2 224C58 224 29 224 14.5 224L0 224Z" fill="#c84379"></path><path d="M0 268L14.5 266.5C29 265 58 262 87.2 262C116.3 262 145.7 265 174.8 267.5C204 270 233 272 262 269.5C291 267 320 260 349 258C378 256 407 259 436.2 261C465.3 263 494.7 264 523.8 262.5C553 261 582 257 611 256C640 255 669 257 698 259C727 261 756 263 785.2 261.5C814.3 260 843.7 255 872.8 253.5C902 252 931 254 945.5 255L960 256L960 233L945.5 234C931 235 902 237 872.8 238.5C843.7 240 814.3 241 785.2 242C756 243 727 244 698 243.5C669 243 640 241 611 242C582 243 553 247 523.8 247.5C494.7 248 465.3 245 436.2 241.5C407 238 378 234 349 236C320 238 291 246 262 248C233 250 204 246 174.8 242.5C145.7 239 116.3 236 87.2 237C58 238 29 243 14.5 245.5L0 248Z" fill="#d7577a"></path><path d="M0 292L14.5 290.5C29 289 58 286 87.2 284.5C116.3 283 145.7 283 174.8 283.5C204 284 233 285 262 283C291 281 320 276 349 276C378 276 407 281 436.2 284C465.3 287 494.7 288 523.8 286.5C553 285 582 281 611 279.5C640 278 669 279 698 279.5C727 280 756 280 785.2 279.5C814.3 279 843.7 278 872.8 277C902 276 931 275 945.5 274.5L960 274L960 254L945.5 253C931 252 902 250 872.8 251.5C843.7 253 814.3 258 785.2 259.5C756 261 727 259 698 257C669 255 640 253 611 254C582 255 553 259 523.8 260.5C494.7 262 465.3 261 436.2 259C407 257 378 254 349 256C320 258 291 265 262 267.5C233 270 204 268 174.8 265.5C145.7 263 116.3 260 87.2 260C58 260 29 263 14.5 264.5L0 266Z" fill="#e46b7c"></path><path d="M0 301L14.5 301C29 301 58 301 87.2 301C116.3 301 145.7 301 174.8 301C204 301 233 301 262 301C291 301 320 301 349 301C378 301 407 301 436.2 301C465.3 301 494.7 301 523.8 301C553 301 582 301 611 301C640 301 669 301 698 301C727 301 756 301 785.2 301C814.3 301 843.7 301 872.8 301C902 301 931 301 945.5 301L960 301L960 272L945.5 272.5C931 273 902 274 872.8 275C843.7 276 814.3 277 785.2 277.5C756 278 727 278 698 277.5C669 277 640 276 611 277.5C582 279 553 283 523.8 284.5C494.7 286 465.3 285 436.2 282C407 279 378 274 349 274C320 274 291 279 262 281C233 283 204 282 174.8 281.5C145.7 281 116.3 281 87.2 282.5C58 284 29 287 14.5 288.5L0 290Z" fill="#f08080"></path></svg>