<svg id="visual" viewBox="0 0 960 300" width="960" height="300" xmlns="http://www.w3.org/2000/svg" xmlns:xlink="http://www.w3.org/1999/xlink" version="1.1"><path d="M0 61L14.5 63.5C29 66 58 71 87.2 79C116.3 87 145.7 98 174.8 98.5C204 99 233 89 262 87C291 85 320 91 349 90C378 89 407 81 436.2 72.5C465.3 64 494.7 55 523.8 51C553 47 582 48 611 49C640 50 669 51 698 48.5C727 46 756 40 785.2 39.5C814.3 39 843.7 44 872.8 44C902 44 931 39 945.5 36.5L960 34L960 0L945.5 0C931 0 902 0 872.8 0C843.7 0 814.3 0 785.2 0C756 0 727 0 698 0C669 0 640 0 611 0C582 0 553 0 523.8 0C494.7 0 465.3 0 436.2 0C407 0 378 0 349 0C320 0 291 0 262 0C233 0 204 0 174.8 0C145.7 0 116.3 0 87.2 0C58 0 29 0 14.5 0L0 0Z" fill="#f08080"></path><path d="M0 76L14.5 77.5C29 79 58 82 87.2 89C116.3 96 145.7 107 174.8 109.5C204 112 233 106 262 104.5C291 103 320 106 349 105C378 104 407 99 436.2 92.5C465.3 86 494.7 78 523.8 72.5C553 67 582 64 611 63C640 62 669 63 698 60.5C727 58 756 52 785.2 51.5C814.3 51 843.7 56 872.8 55.5C902 55 931 49 945.5 46L960 43L960 32L945.5 34.5C931 37 902 42 872.8 42C843.7 42 814.3 37 785.2 37.5C756 38 727 44 698 46.5C669 49 640 48 611 47C582 46 553 45 523.8 49C494.7 53 465.3 62 436.2 70.5C407 79 378 87 349 88C320 89 291 83 262 85C233 87 204 97 174.8 96.5C145.7 96 116.3 85 87.2 77C58 69 29 64 14.5 61.5L0 59Z" fill="#e47270"></path><path d="M0 157L14.5 160.5C29 164 58 171 87.2 173.5C116.3 176 145.7 174 174.8 166C204 158 233 144 262 142C291 140 320 150 349 154.5C378 159 407 158 436.2 159.5C465.3 161 494.7 165 523.8 164.5C553 164 582 159 611 157C640 155 669 156 698 156C727 156 756 155 785.2 150C814.3 145 843.7 136 872.8 134.5C902 133 931 139 945.5 142L960 145L960 41L945.5 44C931 47 902 53 872.8 53.5C843.7 54 814.3 49 785.2 49.5C756 50 727 56 698 58.5C669 61 640 60 611 61C582 62 553 65 523.8 70.5C494.7 76 465.3 84 436.2 90.5C407 97 378 102 349 103C320 104 291 101 262 102.5C233 104 204 110 174.8 107.5C145.7 105 116.3 94 87.2 87C58 80 29 77 14.5 75.5L0 74Z" fill="#d96360"></path><path d="M0 172L14.5 176C29 180 58 188 87.2 193C116.3 198 145.7 200 174.8 192.5C204 185 233 168 262 167C291 166 320 181 349 187.5C378 194 407 192 436.2 193C465.3 194 494.7 198 523.8 198.5C553 199 582 196 611 193.5C640 191 669 189 698 187.5C727 186 756 185 785.2 179C814.3 173 843.7 162 872.8 158.5C902 155 931 159 945.5 161L960 163L960 143L945.5 140C931 137 902 131 872.8 132.5C843.7 134 814.3 143 785.2 148C756 153 727 154 698 154C669 154 640 153 611 155C582 157 553 162 523.8 162.5C494.7 163 465.3 159 436.2 157.5C407 156 378 157 349 152.5C320 148 291 138 262 140C233 142 204 156 174.8 164C145.7 172 116.3 174 87.2 171.5C58 169 29 162 14.5 158.5L0 155Z" fill="#cc5550"></path><path d="M0 208L14.5 213.5C29 219 58 230 87.2 233C116.3 236 145.7 231 174.8 225.5C204 220 233 214 262 212.5C291 211 320 214 349 216.5C378 219 407 221 436.2 221.5C465.3 222 494.7 221 523.8 219.5C553 218 582 216 611 217C640 218 669 222 698 220C727 218 756 210 785.2 204.5C814.3 199 843.7 196 872.8 198.5C902 201 931 209 945.5 213L960 217L960 161L945.5 159C931 157 902 153 872.8 156.5C843.7 160 814.3 171 785.2 177C756 183 727 184 698 185.5C669 187 640 189 611 191.5C582 194 553 197 523.8 196.5C494.7 196 465.3 192 436.2 191C407 190 378 192 349 185.5C320 179 291 164 262 165C233 166 204 183 174.8 190.5C145.7 198 116.3 196 87.2 191C58 186 29 178 14.5 174L0 170Z" fill="#c04741"></path><path d="M0 247L14.5 249.5C29 252 58 257 87.2 256.5C116.3 256 145.7 250 174.8 246.5C204 243 233 242 262 240.5C291 239 320 237 349 236.5C378 236 407 237 436.2 239.5C465.3 242 494.7 246 523.8 246.5C553 247 582 244 611 246C640 248 669 255 698 254.5C727 254 756 246 785.2 239.5C814.3 233 843.7 228 872.8 227.5C902 227 931 231 945.5 233L960 235L960 215L945.5 211C931 207 902 199 872.8 196.5C843.7 194 814.3 197 785.2 202.5C756 208 727 216 698 218C669 220 640 216 611 215C582 214 553 216 523.8 217.5C494.7 219 465.3 220 436.2 219.5C407 219 378 217 349 214.5C320 212 291 209 262 210.5C233 212 204 218 174.8 223.5C145.7 229 116.3 234 87.2 231C58 228 29 217 14.5 211.5L0 206Z" fill="#b33932"></path><path d="M0 259L14.5 261C29 263 58 267 87.2 267.5C116.3 268 145.7 265 174.8 264.5C204 264 233 266 262 266C291 266 320 264 349 263.5C378 263 407 264 436.2 263.5C465.3 263 494.7 261 523.8 260.5C553 260 582 261 611 264C640 267 669 272 698 271.5C727 271 756 265 785.2 261C814.3 257 843.7 255 872.8 254.5C902 254 931 255 945.5 255.5L960 256L960 233L945.5 231C931 229 902 225 872.8 225.5C843.7 226 814.3 231 785.2 237.5C756 244 727 252 698 252.5C669 253 640 246 611 244C582 242 553 245 523.8 244.5C494.7 244 465.3 240 436.2 237.5C407 235 378 234 349 234.5C320 235 291 237 262 238.5C233 240 204 241 174.8 244.5C145.7 248 116.3 254 87.2 254.5C58 255 29 250 14.5 247.5L0 245Z" fill="#a62a22"></path><path d="M0 268L14.5 270.5C29 273 58 278 87.2 279C116.3 280 145.7 277 174.8 277.5C204 278 233 282 262 282.5C291 283 320 280 349 278C378 276 407 275 436.2 273.5C465.3 272 494.7 270 523.8 272.5C553 275 582 282 611 285.5C640 289 669 289 698 287.5C727 286 756 283 785.2 279.5C814.3 276 843.7 272 872.8 270.5C902 269 931 270 945.5 270.5L960 271L960 254L945.5 253.5C931 253 902 252 872.8 252.5C843.7 253 814.3 255 785.2 259C756 263 727 269 698 269.5C669 270 640 265 611 262C582 259 553 258 523.8 258.5C494.7 259 465.3 261 436.2 261.5C407 262 378 261 349 261.5C320 262 291 264 262 264C233 264 204 262 174.8 262.5C145.7 263 116.3 266 87.2 265.5C58 265 29 261 14.5 259L0 257Z" fill="#991913"></path><path d="M0 301L14.5 301C29 301 58 301 87.2 301C116.3 301 145.7 301 174.8 301C204 301 233 301 262 301C291 301 320 301 349 301C378 301 407 301 436.2 301C465.3 301 494.7 301 523.8 301C553 301 582 301 611 301C640 301 669 301 698 301C727 301 756 301 785.2 301C814.3 301 843.7 301 872.8 301C902 301 931 301 945.5 301L960 301L960 269L945.5 268.5C931 268 902 267 872.8 268.5C843.7 270 814.3 274 785.2 277.5C756 281 727 284 698 285.5C669 287 640 287 611 283.5C582 280 553 273 523.8 270.5C494.7 268 465.3 270 436.2 271.5C407 273 378 274 349 276C320 278 291 281 262 280.5C233 280 204 276 174.8 275.5C145.7 275 116.3 278 87.2 277C58 276 29 271 14.5 268.5L0 266Z" fill="#8b0000"></path></svg>