<svg id="visual" viewBox="0 0 960 300" width="960" height="300" xmlns="http://www.w3.org/2000/svg" xmlns:xlink="http://www.w3.org/1999/xlink" version="1.1"><rect x="0" y="0" width="960" height="300" fill="#8b0000"></rect><path d="M0 107L80 172L160 94L240 142L320 223L400 170L480 151L560 179L640 140L720 142L800 105L880 150L960 217L960 301L880 301L800 301L720 301L640 301L560 301L480 301L400 301L320 301L240 301L160 301L80 301L0 301Z" fill="#2a1916"></path><path d="M0 229L80 203L160 190L240 147L320 117L400 121L480 195L560 145L640 217L720 130L800 136L880 145L960 131L960 301L880 301L800 301L720 301L640 301L560 301L480 301L400 301L320 301L240 301L160 301L80 301L0 301Z" fill="#3c1d18"></path><path d="M0 201L80 231L160 144L240 203L320 185L400 174L480 131L560 161L640 123L720 185L800 217L880 147L960 134L960 301L880 301L800 301L720 301L640 301L560 301L480 301L400 301L320 301L240 301L160 301L80 301L0 301Z" fill="#4f211a"></path><path d="M0 193L80 176L160 179L240 189L320 230L400 196L480 140L560 235L640 191L720 217L800 141L880 162L960 178L960 301L880 301L800 301L720 301L640 301L560 301L480 301L400 301L320 301L240 301L160 301L80 301L0 301Z" fill="#61251b"></path><path d="M0 208L80 203L160 192L240 227L320 198L400 218L480 237L560 197L640 250L720 169L800 222L880 245L960 209L960 301L880 301L800 301L720 301L640 301L560 301L480 301L400 301L320 301L240 301L160 301L80 301L0 301Z" fill="#74291b"></path><path d="M0 189L80 181L160 207L240 255L320 233L400 195L480 252L560 225L640 192L720 182L800 251L880 196L960 215L960 301L880 301L800 301L720 301L640 301L560 301L480 301L400 301L320 301L240 301L160 301L80 301L0 301Z" fill="#872c1b"></path><path d="M0 213L80 221L160 198L240 199L320 238L400 211L480 262L560 264L640 196L720 226L800 214L880 209L960 254L960 301L880 301L800 301L720 301L640 301L560 301L480 301L400 301L320 301L240 301L160 301L80 301L0 301Z" fill="#9b301b"></path><path d="M0 253L80 210L160 213L240 246L320 203L400 208L480 251L560 215L640 259L720 221L800 236L880 260L960 263L960 301L880 301L800 301L720 301L640 301L560 301L480 301L400 301L320 301L240 301L160 301L80 301L0 301Z" fill="#af3419"></path><path d="M0 272L80 249L160 260L240 251L320 243L400 231L480 255L560 258L640 268L720 245L800 268L880 259L960 248L960 301L880 301L800 301L720 301L640 301L560 301L480 301L400 301L320 301L240 301L160 301L80 301L0 301Z" fill="#c33717"></path><path d="M0 256L80 245L160 255L240 262L320 246L400 245L480 264L560 255L640 237L720 285L800 258L880 273L960 278L960 301L880 301L800 301L720 301L640 301L560 301L480 301L400 301L320 301L240 301L160 301L80 301L0 301Z" fill="#d73c13"></path><path d="M0 292L80 253L160 256L240 281L320 274L400 267L480 290L560 258L640 261L720 272L800 254L880 256L960 258L960 301L880 301L800 301L720 301L640 301L560 301L480 301L400 301L320 301L240 301L160 301L80 301L0 301Z" fill="#eb400c"></path><path d="M0 294L80 269L160 268L240 268L320 299L400 268L480 284L560 276L640 295L720 297L800 294L880 287L960 281L960 301L880 301L800 301L720 301L640 301L560 301L480 301L400 301L320 301L240 301L160 301L80 301L0 301Z" fill="#ff4500"></path></svg>