<svg id="visual" viewBox="0 0 960 300" width="960" height="300" xmlns="http://www.w3.org/2000/svg" xmlns:xlink="http://www.w3.org/1999/xlink" version="1.1"><rect x="0" y="0" width="960" height="300" fill="#8b0000"></rect><path d="M0 191L80 126L160 204L240 156L320 75L400 128L480 147L560 119L640 158L720 156L800 193L880 148L960 81L960 0L880 0L800 0L720 0L640 0L560 0L480 0L400 0L320 0L240 0L160 0L80 0L0 0Z" fill="#2a1916"></path><path d="M0 69L80 95L160 108L240 151L320 181L400 177L480 103L560 153L640 81L720 168L800 162L880 153L960 167L960 0L880 0L800 0L720 0L640 0L560 0L480 0L400 0L320 0L240 0L160 0L80 0L0 0Z" fill="#331915"></path><path d="M0 97L80 67L160 154L240 95L320 113L400 124L480 167L560 137L640 175L720 113L800 81L880 151L960 164L960 0L880 0L800 0L720 0L640 0L560 0L480 0L400 0L320 0L240 0L160 0L80 0L0 0Z" fill="#3c1a14"></path><path d="M0 105L80 122L160 119L240 109L320 68L400 102L480 158L560 63L640 107L720 81L800 157L880 136L960 120L960 0L880 0L800 0L720 0L640 0L560 0L480 0L400 0L320 0L240 0L160 0L80 0L0 0Z" fill="#451913"></path><path d="M0 90L80 95L160 106L240 71L320 100L400 80L480 61L560 101L640 48L720 129L800 76L880 53L960 89L960 0L880 0L800 0L720 0L640 0L560 0L480 0L400 0L320 0L240 0L160 0L80 0L0 0Z" fill="#4e1912"></path><path d="M0 109L80 117L160 91L240 43L320 65L400 103L480 46L560 73L640 106L720 116L800 47L880 102L960 83L960 0L880 0L800 0L720 0L640 0L560 0L480 0L400 0L320 0L240 0L160 0L80 0L0 0Z" fill="#571810"></path><path d="M0 85L80 77L160 100L240 99L320 60L400 87L480 36L560 34L640 102L720 72L800 84L880 89L960 44L960 0L880 0L800 0L720 0L640 0L560 0L480 0L400 0L320 0L240 0L160 0L80 0L0 0Z" fill="#5f160e"></path><path d="M0 45L80 88L160 85L240 52L320 95L400 90L480 47L560 83L640 39L720 77L800 62L880 38L960 35L960 0L880 0L800 0L720 0L640 0L560 0L480 0L400 0L320 0L240 0L160 0L80 0L0 0Z" fill="#68140c"></path><path d="M0 26L80 49L160 38L240 47L320 55L400 67L480 43L560 40L640 30L720 53L800 30L880 39L960 50L960 0L880 0L800 0L720 0L640 0L560 0L480 0L400 0L320 0L240 0L160 0L80 0L0 0Z" fill="#711109"></path><path d="M0 42L80 53L160 43L240 36L320 52L400 53L480 34L560 43L640 61L720 13L800 40L880 25L960 20L960 0L880 0L800 0L720 0L640 0L560 0L480 0L400 0L320 0L240 0L160 0L80 0L0 0Z" fill="#790d06"></path><path d="M0 6L80 45L160 42L240 17L320 24L400 31L480 8L560 40L640 37L720 26L800 44L880 42L960 40L960 0L880 0L800 0L720 0L640 0L560 0L480 0L400 0L320 0L240 0L160 0L80 0L0 0Z" fill="#820703"></path><path d="M0 4L80 29L160 30L240 30L320 0L400 30L480 14L560 22L640 3L720 1L800 4L880 11L960 17L960 0L880 0L800 0L720 0L640 0L560 0L480 0L400 0L320 0L240 0L160 0L80 0L0 0Z" fill="#8b0000"></path></svg>