<svg id="visual" viewBox="0 0 960 300" width="960" height="300" xmlns="http://www.w3.org/2000/svg" xmlns:xlink="http://www.w3.org/1999/xlink" version="1.1"><rect width="960" height="300" fill="#006400"></rect><g><g transform="translate(182 254)"><path d="M36.9 -10.4C42.3 4.5 37.3 24.5 24.1 34.2C11 44 -10.2 43.6 -23.8 33.6C-37.3 23.5 -43.2 3.8 -37.9 -10.9C-32.7 -25.6 -16.3 -35.3 -0.3 -35.2C15.8 -35.1 31.6 -25.3 36.9 -10.4Z" stroke="#001220" fill="none" stroke-width="20"></path></g><g transform="translate(364 73)"><path d="M34.7 -9.6C39.8 4.3 35 23 22.7 32.2C10.4 41.3 -9.5 40.9 -22.7 31.3C-35.9 21.7 -42.4 2.9 -37.5 -10.7C-32.6 -24.4 -16.3 -32.9 -0.7 -32.6C14.8 -32.4 29.6 -23.4 34.7 -9.6Z" stroke="#001220" fill="none" stroke-width="20"></path></g><g transform="translate(775 151)"><path d="M24.2 -7.9C27.2 1.5 22.7 13.3 13.9 19.8C5.1 26.4 -8 27.7 -15.6 22.1C-23.1 16.4 -25.2 3.8 -21.7 -6.3C-18.2 -16.4 -9.1 -23.9 0.7 -24.2C10.6 -24.4 21.2 -17.4 24.2 -7.9Z" stroke="#001220" fill="none" stroke-width="20"></path></g><g transform="translate(57 149)"><path d="M37.3 -12.4C41.7 1.5 34.1 19 21.4 27.9C8.7 36.8 -9.2 37 -22.1 28.1C-35.1 19.3 -43.1 1.3 -38.6 -12.7C-34.1 -26.8 -17.1 -36.9 -0.3 -36.8C16.4 -36.7 32.9 -26.4 37.3 -12.4Z" stroke="#001220" fill="none" stroke-width="20"></path></g><g transform="translate(556 258)"><path d="M27.4 -9.6C30.8 1.5 25.5 14.8 15.8 21.9C6 29.1 -8.4 30.2 -17.1 23.8C-25.8 17.4 -28.9 3.5 -25.1 -8.1C-21.3 -19.8 -10.6 -29.2 0.7 -29.4C12 -29.6 24 -20.7 27.4 -9.6Z" stroke="#001220" fill="none" stroke-width="20"></path></g><g transform="translate(923 114)"><path d="M34.3 -12.8C38.8 2.7 32.8 19.9 20.9 28.5C9 37.1 -9 37.1 -20.6 28.6C-32.3 20.1 -37.5 3.1 -33.1 -12.4C-28.6 -27.8 -14.3 -41.7 0.3 -41.8C14.9 -41.9 29.8 -28.2 34.3 -12.8Z" stroke="#001220" fill="none" stroke-width="20"></path></g><g transform="translate(224 49)"><path d="M27.3 -9.1C30.5 1.1 24.9 13.9 15.9 20C6.9 26.2 -5.7 25.6 -14.5 19.4C-23.2 13.1 -28.3 1.2 -25.2 -8.8C-22.2 -18.7 -11.1 -26.6 0.5 -26.8C12 -26.9 24 -19.3 27.3 -9.1Z" stroke="#001220" fill="none" stroke-width="20"></path></g><g transform="translate(51 27)"><path d="M25.4 -8.2C29.3 3.7 26.3 17.8 17.6 24.1C8.9 30.4 -5.4 28.8 -14.9 21.6C-24.4 14.4 -29.1 1.7 -25.8 -9.3C-22.5 -20.3 -11.3 -29.6 -0.2 -29.6C10.8 -29.5 21.5 -20 25.4 -8.2Z" stroke="#001220" fill="none" stroke-width="20"></path></g><g transform="translate(573 69)"><path d="M29.8 -11.1C33.9 2.8 29.1 18.1 17.9 26.7C6.8 35.3 -10.8 37.1 -22.2 29.1C-33.7 21.1 -39.2 3.3 -34.5 -11.4C-29.7 -26.2 -14.9 -37.9 -1 -37.6C12.9 -37.2 25.7 -24.9 29.8 -11.1Z" stroke="#001220" fill="none" stroke-width="20"></path></g><g transform="translate(33 268)"><path d="M29.8 -9.7C33.2 0.9 26.9 14.6 17.1 21.3C7.2 27.9 -6.2 27.5 -14.8 21.1C-23.4 14.7 -27.2 2.3 -23.9 -8C-20.7 -18.4 -10.3 -26.7 1.4 -27.1C13.2 -27.6 26.4 -20.2 29.8 -9.7Z" stroke="#001220" fill="none" stroke-width="20"></path></g><g transform="translate(888 276)"><path d="M32.9 -10.8C36.9 1.6 30.4 17.3 19.7 24.5C8.9 31.8 -6.2 30.5 -17.6 22.6C-29.1 14.7 -36.9 0.1 -33.4 -11.7C-29.8 -23.5 -14.9 -32.4 -0.2 -32.3C14.5 -32.3 28.9 -23.2 32.9 -10.8Z" stroke="#001220" fill="none" stroke-width="20"></path></g><g transform="translate(748 294)"><path d="M22.8 -7.5C25.7 1.5 21.5 12.8 13.7 18.3C5.9 23.8 -5.6 23.6 -13.1 18.1C-20.7 12.6 -24.3 1.8 -21.4 -7.2C-18.6 -16.1 -9.3 -23.2 0.3 -23.3C9.9 -23.4 19.9 -16.5 22.8 -7.5Z" stroke="#001220" fill="none" stroke-width="20"></path></g><g transform="translate(841 15)"><path d="M23.2 -7.8C26.6 2.7 23.3 15.1 14.9 21.4C6.5 27.7 -6.9 27.8 -15.1 21.7C-23.2 15.5 -26.1 3.1 -22.7 -7.5C-19.3 -18.1 -9.6 -26.8 0.2 -26.8C9.9 -26.9 19.9 -18.3 23.2 -7.8Z" stroke="#001220" fill="none" stroke-width="20"></path></g><g transform="translate(409 286)"><path d="M38.1 -11.5C43.2 3.2 36.8 22.6 23.4 32.3C10.1 42.1 -10.4 42.2 -22.8 32.8C-35.3 23.4 -39.9 4.5 -34.7 -10.3C-29.6 -25.1 -14.8 -35.8 0.9 -36.1C16.5 -36.3 33 -26.2 38.1 -11.5Z" stroke="#001220" fill="none" stroke-width="20"></path></g><g transform="translate(692 36)"><path d="M31.5 -11.8C35.7 2.6 30.3 18.5 19.5 26.1C8.8 33.8 -7.4 33.2 -19.2 25C-30.9 16.8 -38.1 1 -34.2 -13.1C-30.3 -27.1 -15.1 -39.5 -0.7 -39.3C13.7 -39 27.3 -26.2 31.5 -11.8Z" stroke="#001220" fill="none" stroke-width="20"></path></g><g transform="translate(651 168)"><path d="M30.6 -9.9C35 3.4 30.5 19.7 20.1 27.1C9.6 34.6 -6.8 33.3 -17.3 25.3C-27.8 17.3 -32.3 2.7 -28.4 -10C-24.6 -22.7 -12.3 -33.4 0.4 -33.5C13.1 -33.7 26.3 -23.2 30.6 -9.9Z" stroke="#001220" fill="none" stroke-width="20"></path></g><g transform="translate(474 138)"><path d="M20.9 -8C23.8 1.9 20.3 12.6 13 17.8C5.7 23.1 -5.4 23 -13.7 17.3C-22.1 11.6 -27.6 0.4 -24.8 -9.4C-22.1 -19.1 -11 -27.5 -1 -27.2C9.1 -26.9 18.1 -17.9 20.9 -8Z" stroke="#001220" fill="none" stroke-width="20"></path></g><g transform="translate(304 186)"><path d="M24.4 -8.6C27.9 2.8 24.3 15.7 15.8 22C7.2 28.2 -6.3 27.8 -15.8 21.1C-25.3 14.3 -30.8 1.3 -27.5 -9.8C-24.2 -20.9 -12.1 -30.1 -0.8 -29.8C10.5 -29.6 20.9 -19.9 24.4 -8.6Z" stroke="#001220" fill="none" stroke-width="20"></path></g></g></svg>