<svg id="visual" viewBox="0 0 960 300" width="960" height="300" xmlns="http://www.w3.org/2000/svg" xmlns:xlink="http://www.w3.org/1999/xlink" version="1.1"><rect x="0" y="0" width="960" height="300" fill="#4b0082"></rect><path d="M0 165L22.8 175C45.7 185 91.3 205 137 212.5C182.7 220 228.3 215 274 214.5C319.7 214 365.3 218 411.2 217.8C457 217.7 503 213.3 548.8 204.5C594.7 195.7 640.3 182.3 686 189.5C731.7 196.7 777.3 224.3 823 231C868.7 237.7 914.3 223.3 937.2 216.2L960 209L960 0L937.2 0C914.3 0 868.7 0 823 0C777.3 0 731.7 0 686 0C640.3 0 594.7 0 548.8 0C503 0 457 0 411.2 0C365.3 0 319.7 0 274 0C228.3 0 182.7 0 137 0C91.3 0 45.7 0 22.8 0L0 0Z" fill="#000f19"></path><path d="M0 184L22.8 178C45.7 172 91.3 160 137 156.3C182.7 152.7 228.3 157.3 274 165.7C319.7 174 365.3 186 411.2 184.2C457 182.3 503 166.7 548.8 163C594.7 159.3 640.3 167.7 686 173C731.7 178.3 777.3 180.7 823 182C868.7 183.3 914.3 183.7 937.2 183.8L960 184L960 0L937.2 0C914.3 0 868.7 0 823 0C777.3 0 731.7 0 686 0C640.3 0 594.7 0 548.8 0C503 0 457 0 411.2 0C365.3 0 319.7 0 274 0C228.3 0 182.7 0 137 0C91.3 0 45.7 0 22.8 0L0 0Z" fill="#00111e"></path><path d="M0 180L22.8 171.8C45.7 163.7 91.3 147.3 137 139C182.7 130.7 228.3 130.3 274 130.2C319.7 130 365.3 130 411.2 128.5C457 127 503 124 548.8 123.3C594.7 122.7 640.3 124.3 686 127.8C731.7 131.3 777.3 136.7 823 146.8C868.7 157 914.3 172 937.2 179.5L960 187L960 0L937.2 0C914.3 0 868.7 0 823 0C777.3 0 731.7 0 686 0C640.3 0 594.7 0 548.8 0C503 0 457 0 411.2 0C365.3 0 319.7 0 274 0C228.3 0 182.7 0 137 0C91.3 0 45.7 0 22.8 0L0 0Z" fill="#02233b"></path><path d="M0 136L22.8 135.3C45.7 134.7 91.3 133.3 137 131.7C182.7 130 228.3 128 274 129.2C319.7 130.3 365.3 134.7 411.2 130.7C457 126.7 503 114.3 548.8 117C594.7 119.7 640.3 137.3 686 137.7C731.7 138 777.3 121 823 115C868.7 109 914.3 114 937.2 116.5L960 119L960 0L937.2 0C914.3 0 868.7 0 823 0C777.3 0 731.7 0 686 0C640.3 0 594.7 0 548.8 0C503 0 457 0 411.2 0C365.3 0 319.7 0 274 0C228.3 0 182.7 0 137 0C91.3 0 45.7 0 22.8 0L0 0Z" fill="#003a62"></path><path d="M0 132L22.8 125.7C45.7 119.3 91.3 106.7 137 104.7C182.7 102.7 228.3 111.3 274 114.2C319.7 117 365.3 114 411.2 107.8C457 101.7 503 92.3 548.8 96.2C594.7 100 640.3 117 686 116.8C731.7 116.7 777.3 99.3 823 97.8C868.7 96.3 914.3 110.7 937.2 117.8L960 125L960 0L937.2 0C914.3 0 868.7 0 823 0C777.3 0 731.7 0 686 0C640.3 0 594.7 0 548.8 0C503 0 457 0 411.2 0C365.3 0 319.7 0 274 0C228.3 0 182.7 0 137 0C91.3 0 45.7 0 22.8 0L0 0Z" fill="#003a62"></path><path d="M0 106L22.8 102C45.7 98 91.3 90 137 86.8C182.7 83.7 228.3 85.3 274 83.3C319.7 81.3 365.3 75.7 411.2 72.3C457 69 503 68 548.8 68.3C594.7 68.7 640.3 70.3 686 74C731.7 77.7 777.3 83.3 823 81.5C868.7 79.7 914.3 70.3 937.2 65.7L960 61L960 0L937.2 0C914.3 0 868.7 0 823 0C777.3 0 731.7 0 686 0C640.3 0 594.7 0 548.8 0C503 0 457 0 411.2 0C365.3 0 319.7 0 274 0C228.3 0 182.7 0 137 0C91.3 0 45.7 0 22.8 0L0 0Z" fill="#02233b"></path><path d="M0 60L22.8 60.5C45.7 61 91.3 62 137 58.2C182.7 54.3 228.3 45.7 274 45C319.7 44.3 365.3 51.7 411.2 57.8C457 64 503 69 548.8 71.7C594.7 74.3 640.3 74.7 686 69.5C731.7 64.3 777.3 53.7 823 52.2C868.7 50.7 914.3 58.3 937.2 62.2L960 66L960 0L937.2 0C914.3 0 868.7 0 823 0C777.3 0 731.7 0 686 0C640.3 0 594.7 0 548.8 0C503 0 457 0 411.2 0C365.3 0 319.7 0 274 0C228.3 0 182.7 0 137 0C91.3 0 45.7 0 22.8 0L0 0Z" fill="#00111e"></path><path d="M0 29L22.8 29.3C45.7 29.7 91.3 30.3 137 30.2C182.7 30 228.3 29 274 31.7C319.7 34.3 365.3 40.7 411.2 43.8C457 47 503 47 548.8 45.5C594.7 44 640.3 41 686 39.5C731.7 38 777.3 38 823 39.5C868.7 41 914.3 44 937.2 45.5L960 47L960 0L937.2 0C914.3 0 868.7 0 823 0C777.3 0 731.7 0 686 0C640.3 0 594.7 0 548.8 0C503 0 457 0 411.2 0C365.3 0 319.7 0 274 0C228.3 0 182.7 0 137 0C91.3 0 45.7 0 22.8 0L0 0Z" fill="#000f19"></path></svg>