<svg id="visual" viewBox="0 0 960 300" width="960" height="300" xmlns="http://www.w3.org/2000/svg" xmlns:xlink="http://www.w3.org/1999/xlink" version="1.1"><rect x="0" y="0" width="960" height="300" fill="#001220"></rect><path d="M0 133L22.8 123C45.7 113 91.3 93 137 85.5C182.7 78 228.3 83 274 83.5C319.7 84 365.3 80 411.2 80.2C457 80.3 503 84.7 548.8 93.5C594.7 102.3 640.3 115.7 686 108.5C731.7 101.3 777.3 73.7 823 67C868.7 60.3 914.3 74.7 937.2 81.8L960 89L960 301L937.2 301C914.3 301 868.7 301 823 301C777.3 301 731.7 301 686 301C640.3 301 594.7 301 548.8 301C503 301 457 301 411.2 301C365.3 301 319.7 301 274 301C228.3 301 182.7 301 137 301C91.3 301 45.7 301 22.8 301L0 301Z" fill="#340a61"></path><path d="M0 114L22.8 120C45.7 126 91.3 138 137 141.7C182.7 145.3 228.3 140.7 274 132.3C319.7 124 365.3 112 411.2 113.8C457 115.7 503 131.3 548.8 135C594.7 138.7 640.3 130.3 686 125C731.7 119.7 777.3 117.3 823 116C868.7 114.7 914.3 114.3 937.2 114.2L960 114L960 301L937.2 301C914.3 301 868.7 301 823 301C777.3 301 731.7 301 686 301C640.3 301 594.7 301 548.8 301C503 301 457 301 411.2 301C365.3 301 319.7 301 274 301C228.3 301 182.7 301 137 301C91.3 301 45.7 301 22.8 301L0 301Z" fill="#440479"></path><path d="M0 118L22.8 126.2C45.7 134.3 91.3 150.7 137 159C182.7 167.3 228.3 167.7 274 167.8C319.7 168 365.3 168 411.2 169.5C457 171 503 174 548.8 174.7C594.7 175.3 640.3 173.7 686 170.2C731.7 166.7 777.3 161.3 823 151.2C868.7 141 914.3 126 937.2 118.5L960 111L960 301L937.2 301C914.3 301 868.7 301 823 301C777.3 301 731.7 301 686 301C640.3 301 594.7 301 548.8 301C503 301 457 301 411.2 301C365.3 301 319.7 301 274 301C228.3 301 182.7 301 137 301C91.3 301 45.7 301 22.8 301L0 301Z" fill="#5b1393"></path><path d="M0 162L22.8 162.7C45.7 163.3 91.3 164.7 137 166.3C182.7 168 228.3 170 274 168.8C319.7 167.7 365.3 163.3 411.2 167.3C457 171.3 503 183.7 548.8 181C594.7 178.3 640.3 160.7 686 160.3C731.7 160 777.3 177 823 183C868.7 189 914.3 184 937.2 181.5L960 179L960 301L937.2 301C914.3 301 868.7 301 823 301C777.3 301 731.7 301 686 301C640.3 301 594.7 301 548.8 301C503 301 457 301 411.2 301C365.3 301 319.7 301 274 301C228.3 301 182.7 301 137 301C91.3 301 45.7 301 22.8 301L0 301Z" fill="#7127aa"></path><path d="M0 166L22.8 172.3C45.7 178.7 91.3 191.3 137 193.3C182.7 195.3 228.3 186.7 274 183.8C319.7 181 365.3 184 411.2 190.2C457 196.3 503 205.7 548.8 201.8C594.7 198 640.3 181 686 181.2C731.7 181.3 777.3 198.7 823 200.2C868.7 201.7 914.3 187.3 937.2 180.2L960 173L960 301L937.2 301C914.3 301 868.7 301 823 301C777.3 301 731.7 301 686 301C640.3 301 594.7 301 548.8 301C503 301 457 301 411.2 301C365.3 301 319.7 301 274 301C228.3 301 182.7 301 137 301C91.3 301 45.7 301 22.8 301L0 301Z" fill="#7127aa"></path><path d="M0 192L22.8 196C45.7 200 91.3 208 137 211.2C182.7 214.3 228.3 212.7 274 214.7C319.7 216.7 365.3 222.3 411.2 225.7C457 229 503 230 548.8 229.7C594.7 229.3 640.3 227.7 686 224C731.7 220.3 777.3 214.7 823 216.5C868.7 218.3 914.3 227.7 937.2 232.3L960 237L960 301L937.2 301C914.3 301 868.7 301 823 301C777.3 301 731.7 301 686 301C640.3 301 594.7 301 548.8 301C503 301 457 301 411.2 301C365.3 301 319.7 301 274 301C228.3 301 182.7 301 137 301C91.3 301 45.7 301 22.8 301L0 301Z" fill="#5b1393"></path><path d="M0 238L22.8 237.5C45.7 237 91.3 236 137 239.8C182.7 243.7 228.3 252.3 274 253C319.7 253.7 365.3 246.3 411.2 240.2C457 234 503 229 548.8 226.3C594.7 223.7 640.3 223.3 686 228.5C731.7 233.7 777.3 244.3 823 245.8C868.7 247.3 914.3 239.7 937.2 235.8L960 232L960 301L937.2 301C914.3 301 868.7 301 823 301C777.3 301 731.7 301 686 301C640.3 301 594.7 301 548.8 301C503 301 457 301 411.2 301C365.3 301 319.7 301 274 301C228.3 301 182.7 301 137 301C91.3 301 45.7 301 22.8 301L0 301Z" fill="#440479"></path><path d="M0 269L22.8 268.7C45.7 268.3 91.3 267.7 137 267.8C182.7 268 228.3 269 274 266.3C319.7 263.7 365.3 257.3 411.2 254.2C457 251 503 251 548.8 252.5C594.7 254 640.3 257 686 258.5C731.7 260 777.3 260 823 258.5C868.7 257 914.3 254 937.2 252.5L960 251L960 301L937.2 301C914.3 301 868.7 301 823 301C777.3 301 731.7 301 686 301C640.3 301 594.7 301 548.8 301C503 301 457 301 411.2 301C365.3 301 319.7 301 274 301C228.3 301 182.7 301 137 301C91.3 301 45.7 301 22.8 301L0 301Z" fill="#340a61"></path></svg>